<svg xmlns="http://www.w3.org/2000/svg" xmlns:xlink="http://www.w3.org/1999/xlink" width="500" zoomAndPan="magnify" viewBox="0 0 375 374.999991" height="500" preserveAspectRatio="xMidYMid meet" version="1.0"><defs><g/><clipPath id="02587de6a6"><path d="M 100 129 L 194 129 L 194 221 L 100 221 Z M 100 129 " clip-rule="nonzero"/></clipPath><clipPath id="3aa1345e8c"><path d="M 71.527344 136.753906 L 193.832031 117.890625 L 207.777344 208.324219 L 85.472656 227.183594 Z M 71.527344 136.753906 " clip-rule="nonzero"/></clipPath><clipPath id="cdd32c6d35"><path d="M 71.527344 136.753906 L 193.832031 117.890625 L 207.777344 208.324219 L 85.472656 227.183594 Z M 71.527344 136.753906 " clip-rule="nonzero"/></clipPath><clipPath id="50acee136a"><path d="M 83 172 L 152 172 L 152 223 L 83 223 Z M 83 172 " clip-rule="nonzero"/></clipPath><clipPath id="3ad47861d8"><path d="M 71.527344 136.753906 L 193.832031 117.890625 L 207.777344 208.324219 L 85.472656 227.183594 Z M 71.527344 136.753906 " clip-rule="nonzero"/></clipPath><clipPath id="f421af3782"><path d="M 71.527344 136.753906 L 193.832031 117.890625 L 207.777344 208.324219 L 85.472656 227.183594 Z M 71.527344 136.753906 " clip-rule="nonzero"/></clipPath></defs><g clip-path="url(#02587de6a6)"><g clip-path="url(#3aa1345e8c)"><g clip-path="url(#cdd32c6d35)"><path fill="#5b271e" d="M 100.984375 187.28125 C 100.984375 187.28125 114.542969 186.292969 132.320312 162.03125 C 150.101562 137.769531 167.3125 134.070312 177.140625 146.3125 C 186.972656 158.554688 176.535156 172.230469 176.535156 172.230469 C 176.535156 172.230469 176.421875 165.992188 175.523438 160.171875 C 174.628906 154.355469 171.679688 150.808594 171.679688 150.808594 C 171.679688 150.808594 173.75 159.492188 173.257812 163.976562 C 172.769531 168.457031 168.921875 172.851562 168.921875 172.851562 L 166.191406 173.324219 C 166.191406 173.324219 166.261719 168.519531 164.089844 163.589844 C 161.917969 158.65625 157.390625 156.164062 157.390625 156.164062 C 157.390625 156.164062 161.777344 161.894531 162.378906 165.804688 C 162.984375 169.714844 163.039062 174.609375 163.039062 174.609375 C 163.039062 174.609375 152.929688 175.269531 140.710938 182.359375 C 128.492188 189.449219 120.53125 199.484375 120.53125 199.484375 C 120.53125 199.484375 142.1875 185.433594 156.820312 181.675781 C 171.457031 177.917969 178.964844 181.164062 178.964844 181.164062 L 184.035156 191.992188 C 184.035156 191.992188 169.085938 193.699219 154.355469 200.074219 C 139.625 206.449219 124.8125 220.746094 124.8125 220.746094 C 124.8125 220.746094 150.507812 206.273438 165.636719 201.839844 C 180.769531 197.402344 193.644531 197.820312 193.644531 197.820312 L 183.222656 177.605469 C 183.222656 177.605469 199.035156 150.34375 182.945312 136.210938 C 166.851562 122.078125 142.734375 129.898438 128.433594 155.925781 C 114.128906 181.957031 100.984375 187.28125 100.984375 187.28125 Z M 100.984375 187.28125 " fill-opacity="1" fill-rule="evenodd"/></g></g></g><g clip-path="url(#50acee136a)"><g clip-path="url(#3ad47861d8)"><g clip-path="url(#f421af3782)"><path fill="#ffffff" d="M 108.644531 172.992188 C 108.644531 172.992188 84.542969 180.910156 88.894531 196.15625 C 93.246094 211.398438 113.738281 200.832031 113.738281 200.832031 L 118.816406 212.367188 C 118.816406 212.367188 127.113281 205.777344 134.933594 201.96875 C 142.753906 198.160156 151.144531 198.066406 151.144531 198.066406 C 151.144531 198.066406 134 203.714844 127.625 210.402344 C 121.25 217.089844 116.8125 222.078125 116.8125 222.078125 L 110.566406 208.828125 C 110.566406 208.828125 90.390625 216.242188 84.554688 199.828125 C 78.722656 183.410156 90.917969 174.222656 108.644531 172.992188 Z M 108.644531 172.992188 " fill-opacity="1" fill-rule="evenodd"/></g></g></g><g fill="#ffffff" fill-opacity="1"><g transform="translate(115.471326, 248.34265)"><g/></g></g><g fill="#ffffff" fill-opacity="1"><g transform="translate(124.394895, 248.34265)"><g><path d="M 16.703125 -30.640625 C 16.316406 -30.640625 15.859375 -30.5625 15.328125 -30.40625 C 14.804688 -30.25 14.273438 -29.945312 13.734375 -29.5 C 13.191406 -29.0625 12.660156 -28.441406 12.140625 -27.640625 C 11.617188 -26.847656 11.148438 -25.816406 10.734375 -24.546875 C 10.316406 -23.273438 9.984375 -21.734375 9.734375 -19.921875 C 9.484375 -18.109375 9.359375 -15.96875 9.359375 -13.5 C 9.359375 -11.15625 9.484375 -9.117188 9.734375 -7.390625 C 9.984375 -5.671875 10.320312 -4.203125 10.75 -2.984375 C 11.175781 -1.773438 11.664062 -0.785156 12.21875 -0.015625 C 12.769531 0.742188 13.347656 1.335938 13.953125 1.765625 C 14.566406 2.203125 15.175781 2.5 15.78125 2.65625 C 16.394531 2.8125 16.972656 2.890625 17.515625 2.890625 C 18.078125 2.890625 18.644531 2.816406 19.21875 2.671875 C 19.800781 2.523438 20.367188 2.3125 20.921875 2.03125 C 21.484375 1.757812 22.019531 1.425781 22.53125 1.03125 C 23.050781 0.644531 23.53125 0.203125 23.96875 -0.296875 L 24.953125 0.671875 C 24.515625 1.210938 23.988281 1.757812 23.375 2.3125 C 22.769531 2.875 22.066406 3.382812 21.265625 3.84375 C 20.460938 4.300781 19.554688 4.671875 18.546875 4.953125 C 17.546875 5.242188 16.4375 5.390625 15.21875 5.390625 C 13.320312 5.390625 11.554688 5.023438 9.921875 4.296875 C 8.296875 3.578125 6.875 2.453125 5.65625 0.921875 C 4.445312 -0.609375 3.5 -2.566406 2.8125 -4.953125 C 2.125 -7.347656 1.78125 -10.210938 1.78125 -13.546875 C 1.78125 -16.679688 2.140625 -19.429688 2.859375 -21.796875 C 3.585938 -24.160156 4.578125 -26.132812 5.828125 -27.71875 C 7.078125 -29.3125 8.539062 -30.507812 10.21875 -31.3125 C 11.90625 -32.113281 13.695312 -32.515625 15.59375 -32.515625 C 16.851562 -32.515625 18 -32.394531 19.03125 -32.15625 C 20.070312 -31.914062 20.96875 -31.566406 21.71875 -31.109375 C 22.476562 -30.660156 23.0625 -30.097656 23.46875 -29.421875 C 23.882812 -28.742188 24.09375 -27.976562 24.09375 -27.125 C 24.09375 -26.726562 24.023438 -26.316406 23.890625 -25.890625 C 23.765625 -25.460938 23.566406 -25.070312 23.296875 -24.71875 C 23.035156 -24.363281 22.707031 -24.070312 22.3125 -23.84375 C 21.925781 -23.625 21.472656 -23.515625 20.953125 -23.515625 C 20.484375 -23.515625 20.117188 -23.613281 19.859375 -23.8125 C 19.609375 -24.019531 19.421875 -24.289062 19.296875 -24.625 C 19.179688 -24.957031 19.101562 -25.335938 19.0625 -25.765625 C 19.03125 -26.191406 19.003906 -26.628906 18.984375 -27.078125 C 18.972656 -27.523438 18.941406 -27.960938 18.890625 -28.390625 C 18.835938 -28.816406 18.734375 -29.195312 18.578125 -29.53125 C 18.429688 -29.863281 18.210938 -30.128906 17.921875 -30.328125 C 17.628906 -30.535156 17.222656 -30.640625 16.703125 -30.640625 Z M 16.703125 -30.640625 "/></g></g></g><g fill="#ffffff" fill-opacity="1"><g transform="translate(147.550485, 248.34265)"><g><path d="M 1.328125 -11.140625 C 1.328125 -13.035156 1.601562 -14.695312 2.15625 -16.125 C 2.707031 -17.550781 3.441406 -18.742188 4.359375 -19.703125 C 5.285156 -20.660156 6.351562 -21.378906 7.5625 -21.859375 C 8.78125 -22.335938 10.054688 -22.578125 11.390625 -22.578125 C 12.734375 -22.578125 14.007812 -22.351562 15.21875 -21.90625 C 16.4375 -21.46875 17.503906 -20.789062 18.421875 -19.875 C 19.347656 -18.96875 20.085938 -17.8125 20.640625 -16.40625 C 21.191406 -15.007812 21.46875 -13.351562 21.46875 -11.4375 C 21.46875 -9.539062 21.191406 -7.859375 20.640625 -6.390625 C 20.085938 -4.929688 19.347656 -3.703125 18.421875 -2.703125 C 17.503906 -1.703125 16.4375 -0.941406 15.21875 -0.421875 C 14.007812 0.0859375 12.734375 0.34375 11.390625 0.34375 C 10.054688 0.34375 8.78125 0.101562 7.5625 -0.375 C 6.351562 -0.863281 5.285156 -1.585938 4.359375 -2.546875 C 3.441406 -3.503906 2.707031 -4.695312 2.15625 -6.125 C 1.601562 -7.5625 1.328125 -9.234375 1.328125 -11.140625 Z M 14.703125 -11.359375 C 14.703125 -12.515625 14.660156 -13.628906 14.578125 -14.703125 C 14.503906 -15.785156 14.347656 -16.75 14.109375 -17.59375 C 13.878906 -18.4375 13.546875 -19.109375 13.109375 -19.609375 C 12.679688 -20.109375 12.109375 -20.359375 11.390625 -20.359375 C 10.679688 -20.359375 10.109375 -20.09375 9.671875 -19.5625 C 9.242188 -19.03125 8.910156 -18.332031 8.671875 -17.46875 C 8.441406 -16.613281 8.289062 -15.632812 8.21875 -14.53125 C 8.144531 -13.425781 8.109375 -12.296875 8.109375 -11.140625 C 8.109375 -9.972656 8.144531 -8.832031 8.21875 -7.71875 C 8.289062 -6.613281 8.441406 -5.625 8.671875 -4.75 C 8.910156 -3.882812 9.242188 -3.1875 9.671875 -2.65625 C 10.109375 -2.132812 10.679688 -1.875 11.390625 -1.875 C 12.109375 -1.875 12.679688 -2.148438 13.109375 -2.703125 C 13.546875 -3.253906 13.878906 -3.976562 14.109375 -4.875 C 14.347656 -5.769531 14.503906 -6.78125 14.578125 -7.90625 C 14.660156 -9.039062 14.703125 -10.191406 14.703125 -11.359375 Z M 14.703125 -11.359375 "/></g></g></g><g fill="#ffffff" fill-opacity="1"><g transform="translate(169.249039, 248.34265)"><g><path d="M 1.328125 -11.140625 C 1.328125 -13.035156 1.601562 -14.695312 2.15625 -16.125 C 2.707031 -17.550781 3.441406 -18.742188 4.359375 -19.703125 C 5.285156 -20.660156 6.351562 -21.378906 7.5625 -21.859375 C 8.78125 -22.335938 10.054688 -22.578125 11.390625 -22.578125 C 12.734375 -22.578125 14.007812 -22.351562 15.21875 -21.90625 C 16.4375 -21.46875 17.503906 -20.789062 18.421875 -19.875 C 19.347656 -18.96875 20.085938 -17.8125 20.640625 -16.40625 C 21.191406 -15.007812 21.46875 -13.351562 21.46875 -11.4375 C 21.46875 -9.539062 21.191406 -7.859375 20.640625 -6.390625 C 20.085938 -4.929688 19.347656 -3.703125 18.421875 -2.703125 C 17.503906 -1.703125 16.4375 -0.941406 15.21875 -0.421875 C 14.007812 0.0859375 12.734375 0.34375 11.390625 0.34375 C 10.054688 0.34375 8.78125 0.101562 7.5625 -0.375 C 6.351562 -0.863281 5.285156 -1.585938 4.359375 -2.546875 C 3.441406 -3.503906 2.707031 -4.695312 2.15625 -6.125 C 1.601562 -7.5625 1.328125 -9.234375 1.328125 -11.140625 Z M 14.703125 -11.359375 C 14.703125 -12.515625 14.660156 -13.628906 14.578125 -14.703125 C 14.503906 -15.785156 14.347656 -16.75 14.109375 -17.59375 C 13.878906 -18.4375 13.546875 -19.109375 13.109375 -19.609375 C 12.679688 -20.109375 12.109375 -20.359375 11.390625 -20.359375 C 10.679688 -20.359375 10.109375 -20.09375 9.671875 -19.5625 C 9.242188 -19.03125 8.910156 -18.332031 8.671875 -17.46875 C 8.441406 -16.613281 8.289062 -15.632812 8.21875 -14.53125 C 8.144531 -13.425781 8.109375 -12.296875 8.109375 -11.140625 C 8.109375 -9.972656 8.144531 -8.832031 8.21875 -7.71875 C 8.289062 -6.613281 8.441406 -5.625 8.671875 -4.75 C 8.910156 -3.882812 9.242188 -3.1875 9.671875 -2.65625 C 10.109375 -2.132812 10.679688 -1.875 11.390625 -1.875 C 12.109375 -1.875 12.679688 -2.148438 13.109375 -2.703125 C 13.546875 -3.253906 13.878906 -3.976562 14.109375 -4.875 C 14.347656 -5.769531 14.503906 -6.78125 14.578125 -7.90625 C 14.660156 -9.039062 14.703125 -10.191406 14.703125 -11.359375 Z M 14.703125 -11.359375 "/></g></g></g><g fill="#ffffff" fill-opacity="1"><g transform="translate(190.947592, 248.34265)"><g><path d="M 9.4375 -16.65625 C 9.945312 -17.34375 10.488281 -18.035156 11.0625 -18.734375 C 11.644531 -19.441406 12.269531 -20.078125 12.9375 -20.640625 C 13.601562 -21.203125 14.328125 -21.664062 15.109375 -22.03125 C 15.898438 -22.394531 16.757812 -22.578125 17.6875 -22.578125 C 18.507812 -22.578125 19.195312 -22.410156 19.75 -22.078125 C 20.300781 -21.753906 20.742188 -21.363281 21.078125 -20.90625 C 21.421875 -20.457031 21.660156 -19.984375 21.796875 -19.484375 C 21.941406 -18.992188 22.015625 -18.578125 22.015625 -18.234375 C 22.015625 -17.585938 21.929688 -16.921875 21.765625 -16.234375 C 21.597656 -15.546875 21.3125 -14.863281 20.90625 -14.1875 C 20.507812 -13.519531 19.976562 -12.867188 19.3125 -12.234375 C 18.644531 -11.597656 17.804688 -11.019531 16.796875 -10.5 C 18.160156 -7.613281 19.484375 -5.128906 20.765625 -3.046875 C 22.054688 -0.972656 23.300781 0.734375 24.5 2.078125 C 25.695312 3.421875 26.847656 4.410156 27.953125 5.046875 C 29.054688 5.679688 30.109375 6 31.109375 6 C 31.273438 6 31.445312 5.976562 31.625 5.9375 C 31.800781 5.894531 31.960938 5.84375 32.109375 5.78125 C 32.265625 5.726562 32.429688 5.65625 32.609375 5.5625 L 33.015625 6.328125 C 32.628906 6.546875 32.234375 6.753906 31.828125 6.953125 C 31.421875 7.148438 30.953125 7.316406 30.421875 7.453125 C 29.898438 7.597656 29.300781 7.710938 28.625 7.796875 C 27.945312 7.890625 27.132812 7.9375 26.1875 7.9375 C 25.332031 7.9375 24.488281 7.832031 23.65625 7.625 C 22.820312 7.425781 21.984375 7.066406 21.140625 6.546875 C 20.296875 6.023438 19.441406 5.328125 18.578125 4.453125 C 17.722656 3.585938 16.84375 2.488281 15.9375 1.15625 C 15.03125 -0.175781 14.097656 -1.765625 13.140625 -3.609375 C 12.179688 -5.453125 11.1875 -7.609375 10.15625 -10.078125 C 11.550781 -11.097656 12.644531 -12.046875 13.4375 -12.921875 C 14.238281 -13.804688 14.84375 -14.601562 15.25 -15.3125 C 15.65625 -16.019531 15.90625 -16.648438 16 -17.203125 C 16.101562 -17.753906 16.15625 -18.226562 16.15625 -18.625 C 16.15625 -18.675781 16.148438 -18.769531 16.140625 -18.90625 C 16.128906 -19.050781 16.082031 -19.1875 16 -19.3125 C 15.914062 -19.445312 15.796875 -19.5625 15.640625 -19.65625 C 15.492188 -19.757812 15.285156 -19.8125 15.015625 -19.8125 C 14.472656 -19.8125 13.925781 -19.582031 13.375 -19.125 C 12.820312 -18.664062 12.296875 -18.097656 11.796875 -17.421875 C 11.296875 -16.753906 10.84375 -16.03125 10.4375 -15.25 C 10.03125 -14.476562 9.695312 -13.773438 9.4375 -13.140625 L 9.4375 -1.921875 C 9.4375 -1.722656 9.40625 -1.492188 9.34375 -1.234375 C 9.28125 -0.972656 9.128906 -0.726562 8.890625 -0.5 C 8.648438 -0.269531 8.300781 -0.0703125 7.84375 0.09375 C 7.382812 0.257812 6.769531 0.34375 6 0.34375 C 5.226562 0.34375 4.625 0.25 4.1875 0.0625 C 3.757812 -0.113281 3.441406 -0.320312 3.234375 -0.5625 C 3.023438 -0.8125 2.894531 -1.066406 2.84375 -1.328125 C 2.789062 -1.585938 2.765625 -1.796875 2.765625 -1.953125 L 2.765625 -30.015625 C 2.765625 -30.429688 2.664062 -30.796875 2.46875 -31.109375 C 2.269531 -31.421875 1.941406 -31.578125 1.484375 -31.578125 C 1.234375 -31.578125 1.015625 -31.535156 0.828125 -31.453125 C 0.648438 -31.378906 0.460938 -31.265625 0.265625 -31.109375 L -0.171875 -31.625 C 0.160156 -31.90625 0.53125 -32.175781 0.9375 -32.4375 C 1.34375 -32.707031 1.785156 -32.941406 2.265625 -33.140625 C 2.753906 -33.347656 3.273438 -33.515625 3.828125 -33.640625 C 4.378906 -33.773438 4.957031 -33.84375 5.5625 -33.84375 C 6.507812 -33.84375 7.242188 -33.710938 7.765625 -33.453125 C 8.285156 -33.203125 8.664062 -32.890625 8.90625 -32.515625 C 9.15625 -32.148438 9.304688 -31.757812 9.359375 -31.34375 C 9.410156 -30.9375 9.4375 -30.570312 9.4375 -30.25 Z M 9.4375 -16.65625 "/></g></g></g><g fill="#ffffff" fill-opacity="1"><g transform="translate(213.472525, 248.34265)"><g><path d="M 9.65625 -1.953125 C 9.65625 -1.765625 9.625 -1.535156 9.5625 -1.265625 C 9.5 -1.003906 9.347656 -0.753906 9.109375 -0.515625 C 8.867188 -0.273438 8.519531 -0.0703125 8.0625 0.09375 C 7.613281 0.257812 7.007812 0.34375 6.25 0.34375 C 5.476562 0.34375 4.875 0.25 4.4375 0.0625 C 4 -0.113281 3.671875 -0.320312 3.453125 -0.5625 C 3.234375 -0.8125 3.097656 -1.066406 3.046875 -1.328125 C 3.003906 -1.585938 2.984375 -1.796875 2.984375 -1.953125 L 2.984375 -18.75 C 2.984375 -19.164062 2.882812 -19.53125 2.6875 -19.84375 C 2.488281 -20.15625 2.160156 -20.3125 1.703125 -20.3125 C 1.453125 -20.3125 1.238281 -20.269531 1.0625 -20.1875 C 0.894531 -20.101562 0.707031 -19.976562 0.5 -19.8125 L 0.046875 -20.359375 C 0.378906 -20.628906 0.75 -20.898438 1.15625 -21.171875 C 1.570312 -21.441406 2.019531 -21.675781 2.5 -21.875 C 2.976562 -22.082031 3.492188 -22.25 4.046875 -22.375 C 4.597656 -22.507812 5.175781 -22.578125 5.78125 -22.578125 C 6.726562 -22.578125 7.460938 -22.445312 7.984375 -22.1875 C 8.503906 -21.9375 8.882812 -21.625 9.125 -21.25 C 9.375 -20.882812 9.523438 -20.492188 9.578125 -20.078125 C 9.628906 -19.660156 9.65625 -19.289062 9.65625 -18.96875 Z M 2.3125 -27.53125 C 2.3125 -27.9375 2.398438 -28.320312 2.578125 -28.6875 C 2.753906 -29.0625 3.003906 -29.382812 3.328125 -29.65625 C 3.660156 -29.9375 4.039062 -30.15625 4.46875 -30.3125 C 4.894531 -30.476562 5.363281 -30.5625 5.875 -30.5625 C 6.363281 -30.5625 6.820312 -30.476562 7.25 -30.3125 C 7.675781 -30.15625 8.050781 -29.9375 8.375 -29.65625 C 8.695312 -29.382812 8.945312 -29.0625 9.125 -28.6875 C 9.300781 -28.320312 9.390625 -27.9375 9.390625 -27.53125 C 9.390625 -27.113281 9.300781 -26.722656 9.125 -26.359375 C 8.945312 -25.992188 8.695312 -25.675781 8.375 -25.40625 C 8.050781 -25.144531 7.675781 -24.929688 7.25 -24.765625 C 6.820312 -24.609375 6.363281 -24.53125 5.875 -24.53125 C 5.363281 -24.53125 4.894531 -24.609375 4.46875 -24.765625 C 4.039062 -24.929688 3.660156 -25.144531 3.328125 -25.40625 C 3.003906 -25.675781 2.753906 -25.992188 2.578125 -26.359375 C 2.398438 -26.722656 2.3125 -27.113281 2.3125 -27.53125 Z M 2.3125 -27.53125 "/></g></g></g><g fill="#ffffff" fill-opacity="1"><g transform="translate(224.776106, 248.34265)"><g><path d="M 13.4375 -32.34375 C 13.03125 -32.34375 12.644531 -32.253906 12.28125 -32.078125 C 11.925781 -31.910156 11.613281 -31.632812 11.34375 -31.25 C 11.070312 -30.863281 10.859375 -30.375 10.703125 -29.78125 C 10.546875 -29.1875 10.46875 -28.46875 10.46875 -27.625 L 10.46875 -22.28125 L 15.21875 -22.28125 L 15.21875 -20.703125 L 10.46875 -20.703125 L 10.46875 -3.5625 C 10.46875 -1.59375 10.207031 0.222656 9.6875 1.890625 C 9.175781 3.554688 8.394531 4.992188 7.34375 6.203125 C 6.300781 7.421875 5 8.367188 3.4375 9.046875 C 1.875 9.734375 0.046875 10.078125 -2.046875 10.078125 C -2.785156 10.078125 -3.492188 10.015625 -4.171875 9.890625 C -4.859375 9.765625 -5.460938 9.59375 -5.984375 9.375 C -6.503906 9.15625 -6.921875 8.894531 -7.234375 8.59375 C -7.546875 8.300781 -7.703125 7.972656 -7.703125 7.609375 C -7.703125 7.347656 -7.664062 7.082031 -7.59375 6.8125 C -7.519531 6.550781 -7.410156 6.3125 -7.265625 6.09375 C -7.117188 5.875 -6.941406 5.691406 -6.734375 5.546875 C -6.523438 5.410156 -6.28125 5.34375 -6 5.34375 C -5.84375 5.34375 -5.703125 5.421875 -5.578125 5.578125 C -5.453125 5.742188 -5.320312 5.941406 -5.1875 6.171875 C -5.0625 6.410156 -4.914062 6.671875 -4.75 6.953125 C -4.582031 7.234375 -4.367188 7.488281 -4.109375 7.71875 C -3.847656 7.945312 -3.523438 8.140625 -3.140625 8.296875 C -2.753906 8.460938 -2.285156 8.546875 -1.734375 8.546875 C -0.992188 8.546875 -0.34375 8.394531 0.21875 8.09375 C 0.78125 7.800781 1.265625 7.394531 1.671875 6.875 C 2.078125 6.351562 2.414062 5.734375 2.6875 5.015625 C 2.96875 4.304688 3.1875 3.546875 3.34375 2.734375 C 3.507812 1.921875 3.625 1.070312 3.6875 0.1875 C 3.75 -0.6875 3.78125 -1.566406 3.78125 -2.453125 L 3.78125 -20.703125 L -0.21875 -20.703125 L -0.21875 -22.28125 L 3.78125 -22.28125 L 3.78125 -24.8125 C 3.78125 -26.09375 3.9375 -27.207031 4.25 -28.15625 C 4.5625 -29.101562 4.972656 -29.910156 5.484375 -30.578125 C 6.003906 -31.242188 6.585938 -31.785156 7.234375 -32.203125 C 7.890625 -32.628906 8.554688 -32.960938 9.234375 -33.203125 C 9.910156 -33.453125 10.566406 -33.617188 11.203125 -33.703125 C 11.835938 -33.796875 12.394531 -33.84375 12.875 -33.84375 C 13.90625 -33.84375 14.816406 -33.765625 15.609375 -33.609375 C 16.410156 -33.460938 17.078125 -33.257812 17.609375 -33 C 18.148438 -32.75 18.554688 -32.457031 18.828125 -32.125 C 19.109375 -31.789062 19.25 -31.453125 19.25 -31.109375 C 19.25 -30.847656 19.207031 -30.582031 19.125 -30.3125 C 19.050781 -30.039062 18.941406 -29.789062 18.796875 -29.5625 C 18.648438 -29.34375 18.46875 -29.164062 18.25 -29.03125 C 18.039062 -28.894531 17.804688 -28.828125 17.546875 -28.828125 C 17.390625 -28.828125 17.242188 -28.910156 17.109375 -29.078125 C 16.984375 -29.253906 16.847656 -29.472656 16.703125 -29.734375 C 16.554688 -29.992188 16.394531 -30.273438 16.21875 -30.578125 C 16.050781 -30.890625 15.835938 -31.175781 15.578125 -31.4375 C 15.328125 -31.695312 15.023438 -31.910156 14.671875 -32.078125 C 14.328125 -32.253906 13.914062 -32.34375 13.4375 -32.34375 Z M 13.4375 -32.34375 "/></g></g></g><g fill="#ffffff" fill-opacity="1"><g transform="translate(238.145634, 248.34265)"><g><path d="M 20.0625 -19.15625 C 20.0625 -16.507812 19.800781 -13.945312 19.28125 -11.46875 C 18.769531 -9 18.0625 -6.679688 17.15625 -4.515625 C 16.25 -2.347656 15.171875 -0.367188 13.921875 1.421875 C 12.671875 3.210938 11.3125 4.742188 9.84375 6.015625 C 8.382812 7.296875 6.835938 8.289062 5.203125 9 C 3.578125 9.71875 1.929688 10.078125 0.265625 10.078125 C -1.015625 10.078125 -2 9.859375 -2.6875 9.421875 C -3.382812 8.992188 -3.734375 8.421875 -3.734375 7.703125 C -3.734375 7.421875 -3.691406 7.148438 -3.609375 6.890625 C -3.523438 6.628906 -3.410156 6.394531 -3.265625 6.1875 C -3.117188 5.988281 -2.941406 5.828125 -2.734375 5.703125 C -2.535156 5.585938 -2.320312 5.53125 -2.09375 5.53125 C -1.8125 5.53125 -1.578125 5.664062 -1.390625 5.9375 C -1.210938 6.207031 -1.019531 6.503906 -0.8125 6.828125 C -0.613281 7.160156 -0.367188 7.460938 -0.078125 7.734375 C 0.203125 8.015625 0.597656 8.15625 1.109375 8.15625 C 1.765625 8.15625 2.445312 8.039062 3.15625 7.8125 C 3.863281 7.59375 4.578125 7.269531 5.296875 6.84375 C 6.015625 6.425781 6.734375 5.914062 7.453125 5.3125 C 8.171875 4.71875 8.878906 4.050781 9.578125 3.3125 C 9.171875 1.84375 8.703125 0.242188 8.171875 -1.484375 C 7.640625 -3.222656 7.078125 -4.96875 6.484375 -6.71875 C 5.898438 -8.476562 5.300781 -10.171875 4.6875 -11.796875 C 4.070312 -13.429688 3.46875 -14.878906 2.875 -16.140625 C 2.289062 -17.398438 1.726562 -18.410156 1.1875 -19.171875 C 0.644531 -19.929688 0.160156 -20.3125 -0.265625 -20.3125 C -0.535156 -20.3125 -0.742188 -20.269531 -0.890625 -20.1875 C -1.046875 -20.101562 -1.226562 -19.976562 -1.4375 -19.8125 L -1.875 -20.359375 C -1.582031 -20.609375 -1.273438 -20.863281 -0.953125 -21.125 C -0.640625 -21.382812 -0.265625 -21.625 0.171875 -21.84375 C 0.609375 -22.0625 1.113281 -22.238281 1.6875 -22.375 C 2.269531 -22.507812 2.96875 -22.578125 3.78125 -22.578125 C 4.664062 -22.578125 5.488281 -22.375 6.25 -21.96875 C 7.007812 -21.570312 7.703125 -20.835938 8.328125 -19.765625 C 8.773438 -18.972656 9.242188 -18.015625 9.734375 -16.890625 C 10.222656 -15.773438 10.710938 -14.53125 11.203125 -13.15625 C 11.691406 -11.78125 12.1875 -10.289062 12.6875 -8.6875 C 13.1875 -7.082031 13.691406 -5.40625 14.203125 -3.65625 C 15.097656 -5.539062 15.820312 -7.535156 16.375 -9.640625 C 16.925781 -11.753906 17.203125 -13.925781 17.203125 -16.15625 C 17.203125 -16.957031 17.148438 -17.640625 17.046875 -18.203125 C 16.953125 -18.765625 16.835938 -19.242188 16.703125 -19.640625 C 16.578125 -20.046875 16.460938 -20.390625 16.359375 -20.671875 C 16.253906 -20.953125 16.203125 -21.203125 16.203125 -21.421875 C 16.203125 -21.640625 16.289062 -21.820312 16.46875 -21.96875 C 16.644531 -22.125 16.851562 -22.242188 17.09375 -22.328125 C 17.34375 -22.421875 17.59375 -22.484375 17.84375 -22.515625 C 18.101562 -22.554688 18.316406 -22.578125 18.484375 -22.578125 C 18.878906 -22.578125 19.179688 -22.492188 19.390625 -22.328125 C 19.597656 -22.171875 19.753906 -21.941406 19.859375 -21.640625 C 19.960938 -21.347656 20.019531 -20.992188 20.03125 -20.578125 C 20.050781 -20.160156 20.0625 -19.6875 20.0625 -19.15625 Z M 20.0625 -19.15625 "/></g></g></g></svg>