<svg xmlns="http://www.w3.org/2000/svg" xmlns:xlink="http://www.w3.org/1999/xlink" width="1500" zoomAndPan="magnify" viewBox="0 0 1125 675.000002" height="900" preserveAspectRatio="xMidYMid meet" version="1.0"><defs><g/><clipPath id="8eb0eba9bb"><path d="M 215 51 L 635 51 L 635 466 L 215 466 Z M 215 51 " clip-rule="nonzero"/></clipPath><clipPath id="72e145c9e2"><path d="M 81.871094 85.433594 L 636.238281 -0.0546875 L 699.128906 407.761719 L 144.761719 493.253906 Z M 81.871094 85.433594 " clip-rule="nonzero"/></clipPath><clipPath id="bb3c894990"><path d="M 81.871094 85.433594 L 636.238281 -0.0546875 L 699.128906 407.761719 L 144.761719 493.253906 Z M 81.871094 85.433594 " clip-rule="nonzero"/></clipPath><clipPath id="9d67ae61e7"><path d="M 134 249 L 442 249 L 442 472 L 134 472 Z M 134 249 " clip-rule="nonzero"/></clipPath><clipPath id="10514c4762"><path d="M 81.871094 85.433594 L 636.238281 -0.0546875 L 699.128906 407.761719 L 144.761719 493.253906 Z M 81.871094 85.433594 " clip-rule="nonzero"/></clipPath><clipPath id="7d83f3d5cf"><path d="M 81.871094 85.433594 L 636.238281 -0.0546875 L 699.128906 407.761719 L 144.761719 493.253906 Z M 81.871094 85.433594 " clip-rule="nonzero"/></clipPath></defs><g clip-path="url(#8eb0eba9bb)"><g clip-path="url(#72e145c9e2)"><g clip-path="url(#bb3c894990)"><path fill="#5b271e" d="M 215.09375 313.964844 C 215.09375 313.964844 276.417969 309.488281 356.820312 199.765625 C 437.21875 90.042969 515.054688 73.3125 559.511719 128.671875 C 603.96875 184.035156 556.765625 245.882812 556.765625 245.882812 C 556.765625 245.882812 556.257812 217.667969 552.203125 191.363281 C 548.144531 165.054688 534.804688 149.003906 534.804688 149.003906 C 534.804688 149.003906 544.167969 188.289062 541.953125 208.558594 C 539.738281 228.832031 522.339844 248.703125 522.339844 248.703125 L 509.996094 250.835938 C 509.996094 250.835938 510.308594 229.105469 500.488281 206.804688 C 490.667969 184.507812 470.1875 173.226562 470.1875 173.226562 C 470.1875 173.226562 490.027344 199.140625 492.753906 216.824219 C 495.480469 234.511719 495.730469 256.65625 495.730469 256.65625 C 495.730469 256.65625 450.023438 259.632812 394.761719 291.695312 C 339.503906 323.753906 303.5 369.140625 303.5 369.140625 C 303.5 369.140625 401.4375 305.605469 467.621094 288.609375 C 533.800781 271.609375 567.753906 286.292969 567.753906 286.292969 L 590.695312 335.261719 C 590.695312 335.261719 523.089844 342.980469 456.46875 371.8125 C 389.84375 400.648438 322.863281 465.296875 322.863281 465.296875 C 322.863281 465.296875 439.0625 399.847656 507.488281 379.789062 C 575.917969 359.730469 634.148438 361.613281 634.148438 361.613281 L 587.007812 270.203125 C 587.007812 270.203125 658.535156 146.910156 585.757812 82.992188 C 512.980469 19.070312 403.910156 54.449219 339.226562 172.160156 C 274.539062 289.867188 215.089844 313.964844 215.089844 313.964844 Z M 215.09375 313.964844 " fill-opacity="1" fill-rule="evenodd"/></g></g></g><g clip-path="url(#9d67ae61e7)"><g clip-path="url(#10514c4762)"><g clip-path="url(#7d83f3d5cf)"><path fill="#ffffff" d="M 249.738281 249.328125 C 249.738281 249.328125 140.734375 285.148438 160.421875 354.089844 C 180.105469 423.027344 272.773438 375.242188 272.773438 375.242188 L 295.746094 427.410156 C 295.746094 427.410156 333.257812 397.597656 368.625 380.375 C 403.992188 363.152344 441.953125 362.730469 441.953125 362.730469 C 441.953125 362.730469 364.410156 388.269531 335.578125 418.515625 C 306.746094 448.761719 286.683594 471.320312 286.683594 471.320312 L 258.433594 411.402344 C 258.433594 411.402344 167.1875 444.9375 140.800781 370.695312 C 114.414062 296.453125 169.566406 254.902344 249.734375 249.328125 Z M 249.738281 249.328125 " fill-opacity="1" fill-rule="evenodd"/></g></g></g><g fill="#ffffff" fill-opacity="1"><g transform="translate(243.963967, 611.398114)"><g/></g></g><g fill="#ffffff" fill-opacity="1"><g transform="translate(288.796897, 611.398114)"><g><path d="M 84.03125 -154.15625 C 82.0625 -154.15625 79.765625 -153.753906 77.140625 -152.953125 C 74.515625 -152.148438 71.832031 -150.632812 69.09375 -148.40625 C 66.351562 -146.1875 63.671875 -143.070312 61.046875 -139.0625 C 58.421875 -135.050781 56.066406 -129.851562 53.984375 -123.46875 C 51.910156 -117.09375 50.234375 -109.34375 48.953125 -100.21875 C 47.679688 -91.101562 47.046875 -80.347656 47.046875 -67.953125 C 47.046875 -56.128906 47.679688 -45.878906 48.953125 -37.203125 C 50.234375 -28.523438 51.945312 -21.140625 54.09375 -15.046875 C 56.25 -8.953125 58.710938 -3.972656 61.484375 -0.109375 C 64.253906 3.753906 67.171875 6.757812 70.234375 8.90625 C 73.304688 11.0625 76.375 12.539062 79.4375 13.34375 C 82.5 14.144531 85.378906 14.546875 88.078125 14.546875 C 90.921875 14.546875 93.800781 14.179688 96.71875 13.453125 C 99.632812 12.722656 102.492188 11.664062 105.296875 10.28125 C 108.109375 8.894531 110.8125 7.21875 113.40625 5.25 C 116 3.28125 118.390625 1.019531 120.578125 -1.53125 L 125.5 3.390625 C 123.3125 6.085938 120.6875 8.835938 117.625 11.640625 C 114.5625 14.453125 111.003906 17.007812 106.953125 19.3125 C 102.898438 21.613281 98.359375 23.492188 93.328125 24.953125 C 88.296875 26.410156 82.71875 27.140625 76.59375 27.140625 C 67.03125 27.140625 58.144531 25.3125 49.9375 21.65625 C 41.738281 18.007812 34.59375 12.335938 28.5 4.640625 C 22.40625 -3.046875 17.625 -12.90625 14.15625 -24.9375 C 10.695312 -36.976562 8.96875 -51.390625 8.96875 -68.171875 C 8.96875 -83.921875 10.789062 -97.738281 14.4375 -109.625 C 18.082031 -121.519531 23.039062 -131.457031 29.3125 -139.4375 C 35.59375 -147.425781 42.960938 -153.445312 51.421875 -157.5 C 59.878906 -161.550781 68.890625 -163.578125 78.453125 -163.578125 C 84.796875 -163.578125 90.570312 -162.972656 95.78125 -161.765625 C 101 -160.566406 105.503906 -158.816406 109.296875 -156.515625 C 113.097656 -154.210938 116.035156 -151.363281 118.109375 -147.96875 C 120.191406 -144.582031 121.234375 -140.738281 121.234375 -136.4375 C 121.234375 -134.46875 120.90625 -132.40625 120.25 -130.25 C 119.59375 -128.101562 118.585938 -126.132812 117.234375 -124.34375 C 115.890625 -122.5625 114.226562 -121.101562 112.25 -119.96875 C 110.28125 -118.84375 107.984375 -118.28125 105.359375 -118.28125 C 103.023438 -118.28125 101.21875 -118.789062 99.9375 -119.8125 C 98.664062 -120.832031 97.71875 -122.179688 97.09375 -123.859375 C 96.476562 -125.535156 96.078125 -127.445312 95.890625 -129.59375 C 95.710938 -131.75 95.585938 -133.957031 95.515625 -136.21875 C 95.441406 -138.476562 95.273438 -140.679688 95.015625 -142.828125 C 94.765625 -144.984375 94.253906 -146.898438 93.484375 -148.578125 C 92.722656 -150.253906 91.613281 -151.601562 90.15625 -152.625 C 88.695312 -153.644531 86.65625 -154.15625 84.03125 -154.15625 Z M 84.03125 -154.15625 "/></g></g></g><g fill="#ffffff" fill-opacity="1"><g transform="translate(405.289125, 611.398114)"><g><path d="M 6.671875 -56.015625 C 6.671875 -65.578125 8.054688 -73.945312 10.828125 -81.125 C 13.597656 -88.3125 17.300781 -94.3125 21.9375 -99.125 C 26.570312 -103.9375 31.953125 -107.546875 38.078125 -109.953125 C 44.203125 -112.367188 50.617188 -113.578125 57.328125 -113.578125 C 64.046875 -113.578125 70.46875 -112.460938 76.59375 -110.234375 C 82.71875 -108.003906 88.09375 -104.59375 92.71875 -100 C 97.351562 -95.40625 101.054688 -89.585938 103.828125 -82.546875 C 106.597656 -75.515625 107.984375 -67.179688 107.984375 -57.546875 C 107.984375 -47.992188 106.597656 -39.53125 103.828125 -32.15625 C 101.054688 -24.789062 97.351562 -18.59375 92.71875 -13.5625 C 88.09375 -8.53125 82.71875 -4.71875 76.59375 -2.125 C 70.46875 0.457031 64.046875 1.75 57.328125 1.75 C 50.617188 1.75 44.203125 0.53125 38.078125 -1.90625 C 31.953125 -4.351562 26.570312 -7.984375 21.9375 -12.796875 C 17.300781 -17.609375 13.597656 -23.625 10.828125 -30.84375 C 8.054688 -38.070312 6.671875 -46.460938 6.671875 -56.015625 Z M 73.96875 -57.109375 C 73.96875 -62.941406 73.765625 -68.578125 73.359375 -74.015625 C 72.960938 -79.453125 72.179688 -84.285156 71.015625 -88.515625 C 69.847656 -92.742188 68.164062 -96.113281 65.96875 -98.625 C 63.78125 -101.144531 60.898438 -102.40625 57.328125 -102.40625 C 53.753906 -102.40625 50.875 -101.070312 48.6875 -98.40625 C 46.5 -95.75 44.820312 -92.25 43.65625 -87.90625 C 42.488281 -83.570312 41.722656 -78.628906 41.359375 -73.078125 C 40.992188 -67.535156 40.8125 -61.847656 40.8125 -56.015625 C 40.8125 -50.179688 40.992188 -44.472656 41.359375 -38.890625 C 41.722656 -33.316406 42.488281 -28.335938 43.65625 -23.953125 C 44.820312 -19.578125 46.5 -16.054688 48.6875 -13.390625 C 50.875 -10.734375 53.753906 -9.40625 57.328125 -9.40625 C 60.898438 -9.40625 63.78125 -10.789062 65.96875 -13.5625 C 68.164062 -16.332031 69.847656 -19.976562 71.015625 -24.5 C 72.179688 -29.03125 72.960938 -34.140625 73.359375 -39.828125 C 73.765625 -45.515625 73.96875 -51.273438 73.96875 -57.109375 Z M 73.96875 -57.109375 "/></g></g></g><g fill="#ffffff" fill-opacity="1"><g transform="translate(514.451307, 611.398114)"><g><path d="M 6.671875 -56.015625 C 6.671875 -65.578125 8.054688 -73.945312 10.828125 -81.125 C 13.597656 -88.3125 17.300781 -94.3125 21.9375 -99.125 C 26.570312 -103.9375 31.953125 -107.546875 38.078125 -109.953125 C 44.203125 -112.367188 50.617188 -113.578125 57.328125 -113.578125 C 64.046875 -113.578125 70.46875 -112.460938 76.59375 -110.234375 C 82.71875 -108.003906 88.09375 -104.59375 92.71875 -100 C 97.351562 -95.40625 101.054688 -89.585938 103.828125 -82.546875 C 106.597656 -75.515625 107.984375 -67.179688 107.984375 -57.546875 C 107.984375 -47.992188 106.597656 -39.53125 103.828125 -32.15625 C 101.054688 -24.789062 97.351562 -18.59375 92.71875 -13.5625 C 88.09375 -8.53125 82.71875 -4.71875 76.59375 -2.125 C 70.46875 0.457031 64.046875 1.75 57.328125 1.75 C 50.617188 1.75 44.203125 0.53125 38.078125 -1.90625 C 31.953125 -4.351562 26.570312 -7.984375 21.9375 -12.796875 C 17.300781 -17.609375 13.597656 -23.625 10.828125 -30.84375 C 8.054688 -38.070312 6.671875 -46.460938 6.671875 -56.015625 Z M 73.96875 -57.109375 C 73.96875 -62.941406 73.765625 -68.578125 73.359375 -74.015625 C 72.960938 -79.453125 72.179688 -84.285156 71.015625 -88.515625 C 69.847656 -92.742188 68.164062 -96.113281 65.96875 -98.625 C 63.78125 -101.144531 60.898438 -102.40625 57.328125 -102.40625 C 53.753906 -102.40625 50.875 -101.070312 48.6875 -98.40625 C 46.5 -95.75 44.820312 -92.25 43.65625 -87.90625 C 42.488281 -83.570312 41.722656 -78.628906 41.359375 -73.078125 C 40.992188 -67.535156 40.8125 -61.847656 40.8125 -56.015625 C 40.8125 -50.179688 40.992188 -44.472656 41.359375 -38.890625 C 41.722656 -33.316406 42.488281 -28.335938 43.65625 -23.953125 C 44.820312 -19.578125 46.5 -16.054688 48.6875 -13.390625 C 50.875 -10.734375 53.753906 -9.40625 57.328125 -9.40625 C 60.898438 -9.40625 63.78125 -10.789062 65.96875 -13.5625 C 68.164062 -16.332031 69.847656 -19.976562 71.015625 -24.5 C 72.179688 -29.03125 72.960938 -34.140625 73.359375 -39.828125 C 73.765625 -45.515625 73.96875 -51.273438 73.96875 -57.109375 Z M 73.96875 -57.109375 "/></g></g></g><g fill="#ffffff" fill-opacity="1"><g transform="translate(623.613502, 611.398114)"><g><path d="M 47.484375 -83.8125 C 50.035156 -87.238281 52.769531 -90.71875 55.6875 -94.25 C 58.601562 -97.789062 61.738281 -100.984375 65.09375 -103.828125 C 68.457031 -106.671875 72.109375 -109.003906 76.046875 -110.828125 C 79.984375 -112.660156 84.285156 -113.578125 88.953125 -113.578125 C 93.109375 -113.578125 96.570312 -112.753906 99.34375 -111.109375 C 102.113281 -109.460938 104.351562 -107.488281 106.0625 -105.1875 C 107.78125 -102.894531 108.984375 -100.507812 109.671875 -98.03125 C 110.367188 -95.550781 110.71875 -93.4375 110.71875 -91.6875 C 110.71875 -88.476562 110.296875 -85.140625 109.453125 -81.671875 C 108.617188 -78.210938 107.195312 -74.785156 105.1875 -71.390625 C 103.1875 -67.992188 100.507812 -64.707031 97.15625 -61.53125 C 93.800781 -58.363281 89.570312 -55.46875 84.46875 -52.84375 C 91.320312 -38.332031 97.992188 -25.84375 104.484375 -15.375 C 110.984375 -4.90625 117.238281 3.695312 123.25 10.4375 C 129.269531 17.1875 135.050781 22.164062 140.59375 25.375 C 146.132812 28.59375 151.421875 30.203125 156.453125 30.203125 C 157.335938 30.203125 158.21875 30.09375 159.09375 29.875 C 159.96875 29.65625 160.769531 29.398438 161.5 29.109375 C 162.300781 28.816406 163.140625 28.453125 164.015625 28.015625 L 166.09375 31.84375 C 164.125 32.9375 162.117188 33.972656 160.078125 34.953125 C 158.035156 35.941406 155.695312 36.800781 153.0625 37.53125 C 150.4375 38.257812 147.410156 38.84375 143.984375 39.28125 C 140.554688 39.71875 136.472656 39.9375 131.734375 39.9375 C 127.429688 39.9375 123.179688 39.425781 118.984375 38.40625 C 114.796875 37.382812 110.582031 35.5625 106.34375 32.9375 C 102.113281 30.3125 97.828125 26.804688 93.484375 22.421875 C 89.148438 18.046875 84.703125 12.503906 80.140625 5.796875 C 75.585938 -0.910156 70.898438 -8.894531 66.078125 -18.15625 C 61.265625 -27.425781 56.269531 -38.257812 51.09375 -50.65625 C 58.09375 -55.832031 63.597656 -60.628906 67.609375 -65.046875 C 71.628906 -69.460938 74.660156 -73.457031 76.703125 -77.03125 C 78.742188 -80.601562 80.019531 -83.773438 80.53125 -86.546875 C 81.039062 -89.316406 81.296875 -91.6875 81.296875 -93.65625 C 81.296875 -93.945312 81.257812 -94.4375 81.1875 -95.125 C 81.113281 -95.820312 80.875 -96.5 80.46875 -97.15625 C 80.070312 -97.8125 79.488281 -98.394531 78.71875 -98.90625 C 77.957031 -99.414062 76.882812 -99.671875 75.5 -99.671875 C 72.800781 -99.671875 70.0625 -98.519531 67.28125 -96.21875 C 64.507812 -93.925781 61.863281 -91.082031 59.34375 -87.6875 C 56.832031 -84.300781 54.554688 -80.65625 52.515625 -76.75 C 50.472656 -72.851562 48.796875 -69.296875 47.484375 -66.078125 L 47.484375 -9.625 C 47.484375 -8.675781 47.316406 -7.546875 46.984375 -6.234375 C 46.660156 -4.921875 45.894531 -3.679688 44.6875 -2.515625 C 43.488281 -1.347656 41.738281 -0.347656 39.4375 0.484375 C 37.144531 1.328125 34.066406 1.75 30.203125 1.75 C 26.335938 1.75 23.304688 1.289062 21.109375 0.375 C 18.921875 -0.53125 17.296875 -1.601562 16.234375 -2.84375 C 15.179688 -4.082031 14.523438 -5.359375 14.265625 -6.671875 C 14.015625 -7.984375 13.890625 -9.039062 13.890625 -9.84375 L 13.890625 -150.984375 C 13.890625 -153.097656 13.394531 -154.941406 12.40625 -156.515625 C 11.425781 -158.085938 9.769531 -158.875 7.4375 -158.875 C 6.195312 -158.875 5.117188 -158.671875 4.203125 -158.265625 C 3.296875 -157.867188 2.332031 -157.265625 1.3125 -156.453125 L -0.875 -159.09375 C 0.800781 -160.476562 2.660156 -161.84375 4.703125 -163.1875 C 6.742188 -164.539062 8.984375 -165.726562 11.421875 -166.75 C 13.867188 -167.769531 16.476562 -168.609375 19.25 -169.265625 C 22.03125 -169.921875 24.953125 -170.25 28.015625 -170.25 C 32.753906 -170.25 36.4375 -169.609375 39.0625 -168.328125 C 41.6875 -167.054688 43.617188 -165.488281 44.859375 -163.625 C 46.097656 -161.769531 46.84375 -159.800781 47.09375 -157.71875 C 47.351562 -155.632812 47.484375 -153.789062 47.484375 -152.1875 Z M 47.484375 -83.8125 "/></g></g></g><g fill="#ffffff" fill-opacity="1"><g transform="translate(736.933011, 611.398114)"><g><path d="M 48.578125 -9.84375 C 48.578125 -8.894531 48.410156 -7.742188 48.078125 -6.390625 C 47.753906 -5.046875 46.988281 -3.769531 45.78125 -2.5625 C 44.582031 -1.363281 42.851562 -0.347656 40.59375 0.484375 C 38.332031 1.328125 35.269531 1.75 31.40625 1.75 C 27.539062 1.75 24.507812 1.289062 22.3125 0.375 C 20.125 -0.53125 18.484375 -1.601562 17.390625 -2.84375 C 16.296875 -4.082031 15.617188 -5.359375 15.359375 -6.671875 C 15.109375 -7.984375 14.984375 -9.039062 14.984375 -9.84375 L 14.984375 -94.3125 C 14.984375 -96.425781 14.488281 -98.265625 13.5 -99.828125 C 12.519531 -101.398438 10.863281 -102.1875 8.53125 -102.1875 C 7.289062 -102.1875 6.234375 -101.96875 5.359375 -101.53125 C 4.484375 -101.09375 3.535156 -100.472656 2.515625 -99.671875 L 0.21875 -102.40625 C 1.894531 -103.789062 3.769531 -105.15625 5.84375 -106.5 C 7.925781 -107.851562 10.171875 -109.039062 12.578125 -110.0625 C 14.984375 -111.082031 17.570312 -111.921875 20.34375 -112.578125 C 23.125 -113.242188 26.046875 -113.578125 29.109375 -113.578125 C 33.847656 -113.578125 37.53125 -112.9375 40.15625 -111.65625 C 42.78125 -110.375 44.710938 -108.800781 45.953125 -106.9375 C 47.191406 -105.082031 47.9375 -103.097656 48.1875 -100.984375 C 48.445312 -98.867188 48.578125 -97.007812 48.578125 -95.40625 Z M 11.59375 -138.515625 C 11.59375 -140.554688 12.046875 -142.503906 12.953125 -144.359375 C 13.867188 -146.222656 15.144531 -147.847656 16.78125 -149.234375 C 18.425781 -150.617188 20.328125 -151.710938 22.484375 -152.515625 C 24.640625 -153.316406 26.992188 -153.71875 29.546875 -153.71875 C 32.023438 -153.71875 34.335938 -153.316406 36.484375 -152.515625 C 38.640625 -151.710938 40.519531 -150.617188 42.125 -149.234375 C 43.726562 -147.847656 44.984375 -146.222656 45.890625 -144.359375 C 46.804688 -142.503906 47.265625 -140.554688 47.265625 -138.515625 C 47.265625 -136.398438 46.804688 -134.429688 45.890625 -132.609375 C 44.984375 -130.785156 43.726562 -129.195312 42.125 -127.84375 C 40.519531 -126.5 38.640625 -125.425781 36.484375 -124.625 C 34.335938 -123.820312 32.023438 -123.421875 29.546875 -123.421875 C 26.992188 -123.421875 24.640625 -123.820312 22.484375 -124.625 C 20.328125 -125.425781 18.425781 -126.5 16.78125 -127.84375 C 15.144531 -129.195312 13.867188 -130.785156 12.953125 -132.609375 C 12.046875 -134.429688 11.59375 -136.398438 11.59375 -138.515625 Z M 11.59375 -138.515625 "/></g></g></g><g fill="#ffffff" fill-opacity="1"><g transform="translate(793.800239, 611.398114)"><g><path d="M 67.625 -162.703125 C 65.570312 -162.703125 63.632812 -162.265625 61.8125 -161.390625 C 59.988281 -160.515625 58.398438 -159.109375 57.046875 -157.171875 C 55.703125 -155.234375 54.628906 -152.769531 53.828125 -149.78125 C 53.023438 -146.789062 52.625 -143.179688 52.625 -138.953125 L 52.625 -112.046875 L 76.59375 -112.046875 L 76.59375 -104.15625 L 52.625 -104.15625 L 52.625 -17.9375 C 52.625 -8.019531 51.328125 1.128906 48.734375 9.515625 C 46.148438 17.898438 42.234375 25.140625 36.984375 31.234375 C 31.734375 37.328125 25.164062 42.085938 17.28125 45.515625 C 9.40625 48.941406 0.21875 50.65625 -10.28125 50.65625 C -14 50.65625 -17.570312 50.34375 -21 49.71875 C -24.4375 49.101562 -27.46875 48.25 -30.09375 47.15625 C -32.71875 46.0625 -34.8125 44.765625 -36.375 43.265625 C -37.945312 41.773438 -38.734375 40.117188 -38.734375 38.296875 C -38.734375 36.984375 -38.550781 35.648438 -38.1875 34.296875 C -37.820312 32.953125 -37.273438 31.734375 -36.546875 30.640625 C -35.816406 29.546875 -34.921875 28.648438 -33.859375 27.953125 C -32.804688 27.265625 -31.585938 26.921875 -30.203125 26.921875 C -29.398438 26.921875 -28.6875 27.320312 -28.0625 28.125 C -27.445312 28.925781 -26.8125 29.910156 -26.15625 31.078125 C -25.5 32.242188 -24.75 33.535156 -23.90625 34.953125 C -23.070312 36.378906 -21.992188 37.675781 -20.671875 38.84375 C -19.359375 40.007812 -17.734375 40.992188 -15.796875 41.796875 C -13.867188 42.597656 -11.519531 43 -8.75 43 C -5.03125 43 -1.75 42.25 1.09375 40.75 C 3.9375 39.257812 6.378906 37.203125 8.421875 34.578125 C 10.460938 31.953125 12.175781 28.847656 13.5625 25.265625 C 14.945312 21.691406 16.039062 17.863281 16.84375 13.78125 C 17.644531 9.695312 18.207031 5.429688 18.53125 0.984375 C 18.863281 -3.460938 19.03125 -7.910156 19.03125 -12.359375 L 19.03125 -104.15625 L -1.09375 -104.15625 L -1.09375 -112.046875 L 19.03125 -112.046875 L 19.03125 -124.84375 C 19.03125 -131.257812 19.816406 -136.851562 21.390625 -141.625 C 22.960938 -146.40625 25.039062 -150.472656 27.625 -153.828125 C 30.21875 -157.191406 33.15625 -159.929688 36.4375 -162.046875 C 39.71875 -164.160156 43.050781 -165.835938 46.4375 -167.078125 C 49.832031 -168.316406 53.132812 -169.15625 56.34375 -169.59375 C 59.550781 -170.03125 62.359375 -170.25 64.765625 -170.25 C 69.953125 -170.25 74.550781 -169.863281 78.5625 -169.09375 C 82.570312 -168.332031 85.925781 -167.3125 88.625 -166.03125 C 91.320312 -164.757812 93.363281 -163.285156 94.75 -161.609375 C 96.132812 -159.929688 96.828125 -158.210938 96.828125 -156.453125 C 96.828125 -155.140625 96.625 -153.804688 96.21875 -152.453125 C 95.820312 -151.109375 95.257812 -149.867188 94.53125 -148.734375 C 93.800781 -147.609375 92.90625 -146.695312 91.84375 -146 C 90.789062 -145.3125 89.609375 -144.96875 88.296875 -144.96875 C 87.492188 -144.96875 86.765625 -145.40625 86.109375 -146.28125 C 85.453125 -147.15625 84.757812 -148.25 84.03125 -149.5625 C 83.300781 -150.875 82.5 -152.296875 81.625 -153.828125 C 80.75 -155.359375 79.671875 -156.78125 78.390625 -158.09375 C 77.117188 -159.414062 75.609375 -160.515625 73.859375 -161.390625 C 72.109375 -162.265625 70.03125 -162.703125 67.625 -162.703125 Z M 67.625 -162.703125 "/></g></g></g><g fill="#ffffff" fill-opacity="1"><g transform="translate(861.060814, 611.398114)"><g><path d="M 100.875 -96.390625 C 100.875 -83.046875 99.578125 -70.15625 96.984375 -57.71875 C 94.398438 -45.28125 90.828125 -33.609375 86.265625 -22.703125 C 81.710938 -11.796875 76.296875 -1.84375 70.015625 7.15625 C 63.742188 16.164062 56.925781 23.878906 49.5625 30.296875 C 42.195312 36.722656 34.410156 41.722656 26.203125 45.296875 C 17.992188 48.867188 9.695312 50.65625 1.3125 50.65625 C -5.101562 50.65625 -10.0625 49.578125 -13.5625 47.421875 C -17.0625 45.273438 -18.8125 42.378906 -18.8125 38.734375 C -18.8125 37.347656 -18.59375 36 -18.15625 34.6875 C -17.71875 33.375 -17.132812 32.207031 -16.40625 31.1875 C -15.675781 30.164062 -14.800781 29.34375 -13.78125 28.71875 C -12.757812 28.101562 -11.664062 27.796875 -10.5 27.796875 C -9.113281 27.796875 -7.960938 28.488281 -7.046875 29.875 C -6.140625 31.257812 -5.175781 32.769531 -4.15625 34.40625 C -3.132812 36.050781 -1.894531 37.566406 -0.4375 38.953125 C 1.019531 40.335938 3.023438 41.03125 5.578125 41.03125 C 8.859375 41.03125 12.285156 40.460938 15.859375 39.328125 C 19.429688 38.203125 23.023438 36.582031 26.640625 34.46875 C 30.253906 32.351562 33.863281 29.78125 37.46875 26.75 C 41.082031 23.71875 44.640625 20.34375 48.140625 16.625 C 46.097656 9.257812 43.742188 1.222656 41.078125 -7.484375 C 38.421875 -16.203125 35.613281 -24.972656 32.65625 -33.796875 C 29.707031 -42.628906 26.679688 -51.148438 23.578125 -59.359375 C 20.472656 -67.566406 17.441406 -74.84375 14.484375 -81.1875 C 11.535156 -87.53125 8.691406 -92.613281 5.953125 -96.4375 C 3.222656 -100.269531 0.800781 -102.1875 -1.3125 -102.1875 C -2.695312 -102.1875 -3.769531 -101.96875 -4.53125 -101.53125 C -5.300781 -101.09375 -6.195312 -100.472656 -7.21875 -99.671875 L -9.40625 -102.40625 C -7.945312 -103.644531 -6.414062 -104.921875 -4.8125 -106.234375 C -3.207031 -107.546875 -1.3125 -108.75 0.875 -109.84375 C 3.0625 -110.9375 5.613281 -111.832031 8.53125 -112.53125 C 11.445312 -113.226562 14.945312 -113.578125 19.03125 -113.578125 C 23.488281 -113.578125 27.628906 -112.570312 31.453125 -110.5625 C 35.285156 -108.550781 38.769531 -104.847656 41.90625 -99.453125 C 44.164062 -95.441406 46.515625 -90.628906 48.953125 -85.015625 C 51.398438 -79.398438 53.863281 -73.125 56.34375 -66.1875 C 58.820312 -59.257812 61.320312 -51.765625 63.84375 -43.703125 C 66.363281 -35.648438 68.898438 -27.207031 71.453125 -18.375 C 75.972656 -27.863281 79.617188 -37.910156 82.390625 -48.515625 C 85.160156 -59.128906 86.546875 -70.054688 86.546875 -81.296875 C 86.546875 -85.304688 86.289062 -88.734375 85.78125 -91.578125 C 85.269531 -94.421875 84.6875 -96.84375 84.03125 -98.84375 C 83.375 -100.851562 82.789062 -102.566406 82.28125 -103.984375 C 81.769531 -105.410156 81.515625 -106.671875 81.515625 -107.765625 C 81.515625 -108.859375 81.953125 -109.785156 82.828125 -110.546875 C 83.703125 -111.316406 84.757812 -111.921875 86 -112.359375 C 87.238281 -112.804688 88.492188 -113.117188 89.765625 -113.296875 C 91.046875 -113.484375 92.125 -113.578125 93 -113.578125 C 94.96875 -113.578125 96.476562 -113.171875 97.53125 -112.359375 C 98.59375 -111.554688 99.378906 -110.40625 99.890625 -108.90625 C 100.398438 -107.414062 100.691406 -105.613281 100.765625 -103.5 C 100.835938 -101.382812 100.875 -99.015625 100.875 -96.390625 Z M 100.875 -96.390625 "/></g></g></g></svg>